<svg xmlns="http://www.w3.org/2000/svg" viewBox="0 0 840 600" width="840" height="600" role="img"><defs>
<linearGradient id="bg" x1="0" y1="0" x2="1" y2="1">
<stop offset="0" stop-color="#faf8f5"/><stop offset="1" stop-color="#e9e5dd"/></linearGradient>
<linearGradient id="mtl" x1="0" y1="0" x2="1" y2="1">
<stop offset="0" stop-color="#f2f4f6"/><stop offset=".42" stop-color="#c2c8cf"/>
<stop offset=".62" stop-color="#f2f4f6"/><stop offset="1" stop-color="#8b929b"/></linearGradient>
<linearGradient id="mtl2" x1="1" y1="0" x2="0" y2="1">
<stop offset="0" stop-color="#c2c8cf"/><stop offset=".5" stop-color="#f2f4f6"/>
<stop offset="1" stop-color="#8b929b"/></linearGradient>
<linearGradient id="strap" x1="0" y1="0" x2="1" y2="0">
<stop offset="0" stop-color="#1e1c1b"/><stop offset=".35" stop-color="#33302e"/>
<stop offset="1" stop-color="#1e1c1b"/></linearGradient>
<radialGradient id="dial" cx=".38" cy=".3" r=".85">
<stop offset="0" stop-color="#fdfcfa"/><stop offset="1" stop-color="#e6e2da"/></radialGradient>
<radialGradient id="glass" cx=".3" cy=".22" r=".6">
<stop offset="0" stop-color="#ffffff" stop-opacity=".30"/>
<stop offset=".55" stop-color="#ffffff" stop-opacity=".05"/>
<stop offset="1" stop-color="#ffffff" stop-opacity="0"/></radialGradient>
<radialGradient id="shadow" cx=".5" cy=".5" r=".5">
<stop offset="0" stop-color="#000" stop-opacity=".22"/>
<stop offset="1" stop-color="#000" stop-opacity="0"/></radialGradient>
</defs><rect x="-2000" y="-2000" width="4840" height="4600" fill="url(#bg)"/><g transform="translate(420 300)"><g transform="rotate(-12)"><g transform="rotate(0) scale(0.72)">
<ellipse cx="0" cy="18" rx="250" ry="250" fill="url(#shadow)"/>
<path d="M-112 -150 L112 -150 L94 -360 L-94 -360 Z" fill="url(#strap)"/><line x1="-93.42857142857143" y1="-180" x2="93.42857142857143" y2="-180" stroke="#000" stroke-opacity=".16" stroke-width="2" stroke-dasharray="7 9"/><line x1="-90.85714285714286" y1="-210" x2="90.85714285714286" y2="-210" stroke="#000" stroke-opacity=".16" stroke-width="2" stroke-dasharray="7 9"/><line x1="-88.28571428571429" y1="-240" x2="88.28571428571429" y2="-240" stroke="#000" stroke-opacity=".16" stroke-width="2" stroke-dasharray="7 9"/><line x1="-85.71428571428572" y1="-270" x2="85.71428571428572" y2="-270" stroke="#000" stroke-opacity=".16" stroke-width="2" stroke-dasharray="7 9"/><line x1="-83.14285714285714" y1="-300" x2="83.14285714285714" y2="-300" stroke="#000" stroke-opacity=".16" stroke-width="2" stroke-dasharray="7 9"/><line x1="-80.57142857142857" y1="-330" x2="80.57142857142857" y2="-330" stroke="#000" stroke-opacity=".16" stroke-width="2" stroke-dasharray="7 9"/><path d="M-112 150 L112 150 L94 360 L-94 360 Z" fill="url(#strap)"/><line x1="-93.42857142857143" y1="180" x2="93.42857142857143" y2="180" stroke="#000" stroke-opacity=".16" stroke-width="2" stroke-dasharray="7 9"/><line x1="-90.85714285714286" y1="210" x2="90.85714285714286" y2="210" stroke="#000" stroke-opacity=".16" stroke-width="2" stroke-dasharray="7 9"/><line x1="-88.28571428571429" y1="240" x2="88.28571428571429" y2="240" stroke="#000" stroke-opacity=".16" stroke-width="2" stroke-dasharray="7 9"/><line x1="-85.71428571428572" y1="270" x2="85.71428571428572" y2="270" stroke="#000" stroke-opacity=".16" stroke-width="2" stroke-dasharray="7 9"/><line x1="-83.14285714285714" y1="300" x2="83.14285714285714" y2="300" stroke="#000" stroke-opacity=".16" stroke-width="2" stroke-dasharray="7 9"/><line x1="-80.57142857142857" y1="330" x2="80.57142857142857" y2="330" stroke="#000" stroke-opacity=".16" stroke-width="2" stroke-dasharray="7 9"/>
<circle r="196" fill="url(#mtl2)"/><circle r="196" fill="none" stroke="#000" stroke-opacity=".22" stroke-width="2"/><circle r="188" fill="#111418"/><line x1="0.0" y1="-172.0" x2="0.0" y2="-184.0" stroke="#fff" stroke-opacity="0.8" stroke-width="3"/><line x1="29.9" y1="-169.4" x2="32.0" y2="-181.2" stroke="#fff" stroke-opacity="0.32" stroke-width="1.5"/><line x1="58.8" y1="-161.6" x2="62.9" y2="-172.9" stroke="#fff" stroke-opacity="0.32" stroke-width="1.5"/><line x1="86.0" y1="-149.0" x2="92.0" y2="-159.3" stroke="#fff" stroke-opacity="0.8" stroke-width="3"/><line x1="110.6" y1="-131.8" x2="118.3" y2="-141.0" stroke="#fff" stroke-opacity="0.32" stroke-width="1.5"/><line x1="131.8" y1="-110.6" x2="141.0" y2="-118.3" stroke="#fff" stroke-opacity="0.32" stroke-width="1.5"/><line x1="149.0" y1="-86.0" x2="159.3" y2="-92.0" stroke="#fff" stroke-opacity="0.8" stroke-width="3"/><line x1="161.6" y1="-58.8" x2="172.9" y2="-62.9" stroke="#fff" stroke-opacity="0.32" stroke-width="1.5"/><line x1="169.4" y1="-29.9" x2="181.2" y2="-32.0" stroke="#fff" stroke-opacity="0.32" stroke-width="1.5"/><line x1="172.0" y1="-0.0" x2="184.0" y2="-0.0" stroke="#fff" stroke-opacity="0.8" stroke-width="3"/><line x1="169.4" y1="29.9" x2="181.2" y2="32.0" stroke="#fff" stroke-opacity="0.32" stroke-width="1.5"/><line x1="161.6" y1="58.8" x2="172.9" y2="62.9" stroke="#fff" stroke-opacity="0.32" stroke-width="1.5"/><line x1="149.0" y1="86.0" x2="159.3" y2="92.0" stroke="#fff" stroke-opacity="0.8" stroke-width="3"/><line x1="131.8" y1="110.6" x2="141.0" y2="118.3" stroke="#fff" stroke-opacity="0.32" stroke-width="1.5"/><line x1="110.6" y1="131.8" x2="118.3" y2="141.0" stroke="#fff" stroke-opacity="0.32" stroke-width="1.5"/><line x1="86.0" y1="149.0" x2="92.0" y2="159.3" stroke="#fff" stroke-opacity="0.8" stroke-width="3"/><line x1="58.8" y1="161.6" x2="62.9" y2="172.9" stroke="#fff" stroke-opacity="0.32" stroke-width="1.5"/><line x1="29.9" y1="169.4" x2="32.0" y2="181.2" stroke="#fff" stroke-opacity="0.32" stroke-width="1.5"/><line x1="0.0" y1="172.0" x2="0.0" y2="184.0" stroke="#fff" stroke-opacity="0.8" stroke-width="3"/><line x1="-29.9" y1="169.4" x2="-32.0" y2="181.2" stroke="#fff" stroke-opacity="0.32" stroke-width="1.5"/><line x1="-58.8" y1="161.6" x2="-62.9" y2="172.9" stroke="#fff" stroke-opacity="0.32" stroke-width="1.5"/><line x1="-86.0" y1="149.0" x2="-92.0" y2="159.3" stroke="#fff" stroke-opacity="0.8" stroke-width="3"/><line x1="-110.6" y1="131.8" x2="-118.3" y2="141.0" stroke="#fff" stroke-opacity="0.32" stroke-width="1.5"/><line x1="-131.8" y1="110.6" x2="-141.0" y2="118.3" stroke="#fff" stroke-opacity="0.32" stroke-width="1.5"/><line x1="-149.0" y1="86.0" x2="-159.3" y2="92.0" stroke="#fff" stroke-opacity="0.8" stroke-width="3"/><line x1="-161.6" y1="58.8" x2="-172.9" y2="62.9" stroke="#fff" stroke-opacity="0.32" stroke-width="1.5"/><line x1="-169.4" y1="29.9" x2="-181.2" y2="32.0" stroke="#fff" stroke-opacity="0.32" stroke-width="1.5"/><line x1="-172.0" y1="0.0" x2="-184.0" y2="0.0" stroke="#fff" stroke-opacity="0.8" stroke-width="3"/><line x1="-169.4" y1="-29.9" x2="-181.2" y2="-32.0" stroke="#fff" stroke-opacity="0.32" stroke-width="1.5"/><line x1="-161.6" y1="-58.8" x2="-172.9" y2="-62.9" stroke="#fff" stroke-opacity="0.32" stroke-width="1.5"/><line x1="-149.0" y1="-86.0" x2="-159.3" y2="-92.0" stroke="#fff" stroke-opacity="0.8" stroke-width="3"/><line x1="-131.8" y1="-110.6" x2="-141.0" y2="-118.3" stroke="#fff" stroke-opacity="0.32" stroke-width="1.5"/><line x1="-110.6" y1="-131.8" x2="-118.3" y2="-141.0" stroke="#fff" stroke-opacity="0.32" stroke-width="1.5"/><line x1="-86.0" y1="-149.0" x2="-92.0" y2="-159.3" stroke="#fff" stroke-opacity="0.8" stroke-width="3"/><line x1="-58.8" y1="-161.6" x2="-62.9" y2="-172.9" stroke="#fff" stroke-opacity="0.32" stroke-width="1.5"/><line x1="-29.9" y1="-169.4" x2="-32.0" y2="-181.2" stroke="#fff" stroke-opacity="0.32" stroke-width="1.5"/>
<rect x="186" y="-22" width="36" height="44" rx="7" fill="url(#mtl)" stroke="#000" stroke-opacity=".2"/><rect x="188" y="-74" width="28" height="28" rx="6" fill="url(#mtl)"/><rect x="188" y="46" width="28" height="28" rx="6" fill="url(#mtl)"/>
<circle r="164" fill="url(#dial)"/>
<line x1="0.0" y1="-152.0" x2="0.0" y2="-160.0" stroke="#1a1a1a" stroke-opacity="0.55" stroke-width="2.6"/><line x1="15.9" y1="-151.2" x2="16.7" y2="-159.1" stroke="#1a1a1a" stroke-opacity="0.25" stroke-width="1.4"/><line x1="31.6" y1="-148.7" x2="33.3" y2="-156.5" stroke="#1a1a1a" stroke-opacity="0.25" stroke-width="1.4"/><line x1="47.0" y1="-144.6" x2="49.4" y2="-152.2" stroke="#1a1a1a" stroke-opacity="0.25" stroke-width="1.4"/><line x1="61.8" y1="-138.9" x2="65.1" y2="-146.2" stroke="#1a1a1a" stroke-opacity="0.25" stroke-width="1.4"/><line x1="76.0" y1="-131.6" x2="80.0" y2="-138.6" stroke="#1a1a1a" stroke-opacity="0.55" stroke-width="2.6"/><line x1="89.3" y1="-123.0" x2="94.0" y2="-129.4" stroke="#1a1a1a" stroke-opacity="0.25" stroke-width="1.4"/><line x1="101.7" y1="-113.0" x2="107.1" y2="-118.9" stroke="#1a1a1a" stroke-opacity="0.25" stroke-width="1.4"/><line x1="113.0" y1="-101.7" x2="118.9" y2="-107.1" stroke="#1a1a1a" stroke-opacity="0.25" stroke-width="1.4"/><line x1="123.0" y1="-89.3" x2="129.4" y2="-94.0" stroke="#1a1a1a" stroke-opacity="0.25" stroke-width="1.4"/><line x1="131.6" y1="-76.0" x2="138.6" y2="-80.0" stroke="#1a1a1a" stroke-opacity="0.55" stroke-width="2.6"/><line x1="138.9" y1="-61.8" x2="146.2" y2="-65.1" stroke="#1a1a1a" stroke-opacity="0.25" stroke-width="1.4"/><line x1="144.6" y1="-47.0" x2="152.2" y2="-49.4" stroke="#1a1a1a" stroke-opacity="0.25" stroke-width="1.4"/><line x1="148.7" y1="-31.6" x2="156.5" y2="-33.3" stroke="#1a1a1a" stroke-opacity="0.25" stroke-width="1.4"/><line x1="151.2" y1="-15.9" x2="159.1" y2="-16.7" stroke="#1a1a1a" stroke-opacity="0.25" stroke-width="1.4"/><line x1="152.0" y1="-0.0" x2="160.0" y2="-0.0" stroke="#1a1a1a" stroke-opacity="0.55" stroke-width="2.6"/><line x1="151.2" y1="15.9" x2="159.1" y2="16.7" stroke="#1a1a1a" stroke-opacity="0.25" stroke-width="1.4"/><line x1="148.7" y1="31.6" x2="156.5" y2="33.3" stroke="#1a1a1a" stroke-opacity="0.25" stroke-width="1.4"/><line x1="144.6" y1="47.0" x2="152.2" y2="49.4" stroke="#1a1a1a" stroke-opacity="0.25" stroke-width="1.4"/><line x1="138.9" y1="61.8" x2="146.2" y2="65.1" stroke="#1a1a1a" stroke-opacity="0.25" stroke-width="1.4"/><line x1="131.6" y1="76.0" x2="138.6" y2="80.0" stroke="#1a1a1a" stroke-opacity="0.55" stroke-width="2.6"/><line x1="123.0" y1="89.3" x2="129.4" y2="94.0" stroke="#1a1a1a" stroke-opacity="0.25" stroke-width="1.4"/><line x1="113.0" y1="101.7" x2="118.9" y2="107.1" stroke="#1a1a1a" stroke-opacity="0.25" stroke-width="1.4"/><line x1="101.7" y1="113.0" x2="107.1" y2="118.9" stroke="#1a1a1a" stroke-opacity="0.25" stroke-width="1.4"/><line x1="89.3" y1="123.0" x2="94.0" y2="129.4" stroke="#1a1a1a" stroke-opacity="0.25" stroke-width="1.4"/><line x1="76.0" y1="131.6" x2="80.0" y2="138.6" stroke="#1a1a1a" stroke-opacity="0.55" stroke-width="2.6"/><line x1="61.8" y1="138.9" x2="65.1" y2="146.2" stroke="#1a1a1a" stroke-opacity="0.25" stroke-width="1.4"/><line x1="47.0" y1="144.6" x2="49.4" y2="152.2" stroke="#1a1a1a" stroke-opacity="0.25" stroke-width="1.4"/><line x1="31.6" y1="148.7" x2="33.3" y2="156.5" stroke="#1a1a1a" stroke-opacity="0.25" stroke-width="1.4"/><line x1="15.9" y1="151.2" x2="16.7" y2="159.1" stroke="#1a1a1a" stroke-opacity="0.25" stroke-width="1.4"/><line x1="0.0" y1="152.0" x2="0.0" y2="160.0" stroke="#1a1a1a" stroke-opacity="0.55" stroke-width="2.6"/><line x1="-15.9" y1="151.2" x2="-16.7" y2="159.1" stroke="#1a1a1a" stroke-opacity="0.25" stroke-width="1.4"/><line x1="-31.6" y1="148.7" x2="-33.3" y2="156.5" stroke="#1a1a1a" stroke-opacity="0.25" stroke-width="1.4"/><line x1="-47.0" y1="144.6" x2="-49.4" y2="152.2" stroke="#1a1a1a" stroke-opacity="0.25" stroke-width="1.4"/><line x1="-61.8" y1="138.9" x2="-65.1" y2="146.2" stroke="#1a1a1a" stroke-opacity="0.25" stroke-width="1.4"/><line x1="-76.0" y1="131.6" x2="-80.0" y2="138.6" stroke="#1a1a1a" stroke-opacity="0.55" stroke-width="2.6"/><line x1="-89.3" y1="123.0" x2="-94.0" y2="129.4" stroke="#1a1a1a" stroke-opacity="0.25" stroke-width="1.4"/><line x1="-101.7" y1="113.0" x2="-107.1" y2="118.9" stroke="#1a1a1a" stroke-opacity="0.25" stroke-width="1.4"/><line x1="-113.0" y1="101.7" x2="-118.9" y2="107.1" stroke="#1a1a1a" stroke-opacity="0.25" stroke-width="1.4"/><line x1="-123.0" y1="89.3" x2="-129.4" y2="94.0" stroke="#1a1a1a" stroke-opacity="0.25" stroke-width="1.4"/><line x1="-131.6" y1="76.0" x2="-138.6" y2="80.0" stroke="#1a1a1a" stroke-opacity="0.55" stroke-width="2.6"/><line x1="-138.9" y1="61.8" x2="-146.2" y2="65.1" stroke="#1a1a1a" stroke-opacity="0.25" stroke-width="1.4"/><line x1="-144.6" y1="47.0" x2="-152.2" y2="49.4" stroke="#1a1a1a" stroke-opacity="0.25" stroke-width="1.4"/><line x1="-148.7" y1="31.6" x2="-156.5" y2="33.3" stroke="#1a1a1a" stroke-opacity="0.25" stroke-width="1.4"/><line x1="-151.2" y1="15.9" x2="-159.1" y2="16.7" stroke="#1a1a1a" stroke-opacity="0.25" stroke-width="1.4"/><line x1="-152.0" y1="0.0" x2="-160.0" y2="0.0" stroke="#1a1a1a" stroke-opacity="0.55" stroke-width="2.6"/><line x1="-151.2" y1="-15.9" x2="-159.1" y2="-16.7" stroke="#1a1a1a" stroke-opacity="0.25" stroke-width="1.4"/><line x1="-148.7" y1="-31.6" x2="-156.5" y2="-33.3" stroke="#1a1a1a" stroke-opacity="0.25" stroke-width="1.4"/><line x1="-144.6" y1="-47.0" x2="-152.2" y2="-49.4" stroke="#1a1a1a" stroke-opacity="0.25" stroke-width="1.4"/><line x1="-138.9" y1="-61.8" x2="-146.2" y2="-65.1" stroke="#1a1a1a" stroke-opacity="0.25" stroke-width="1.4"/><line x1="-131.6" y1="-76.0" x2="-138.6" y2="-80.0" stroke="#1a1a1a" stroke-opacity="0.55" stroke-width="2.6"/><line x1="-123.0" y1="-89.3" x2="-129.4" y2="-94.0" stroke="#1a1a1a" stroke-opacity="0.25" stroke-width="1.4"/><line x1="-113.0" y1="-101.7" x2="-118.9" y2="-107.1" stroke="#1a1a1a" stroke-opacity="0.25" stroke-width="1.4"/><line x1="-101.7" y1="-113.0" x2="-107.1" y2="-118.9" stroke="#1a1a1a" stroke-opacity="0.25" stroke-width="1.4"/><line x1="-89.3" y1="-123.0" x2="-94.0" y2="-129.4" stroke="#1a1a1a" stroke-opacity="0.25" stroke-width="1.4"/><line x1="-76.0" y1="-131.6" x2="-80.0" y2="-138.6" stroke="#1a1a1a" stroke-opacity="0.55" stroke-width="2.6"/><line x1="-61.8" y1="-138.9" x2="-65.1" y2="-146.2" stroke="#1a1a1a" stroke-opacity="0.25" stroke-width="1.4"/><line x1="-47.0" y1="-144.6" x2="-49.4" y2="-152.2" stroke="#1a1a1a" stroke-opacity="0.25" stroke-width="1.4"/><line x1="-31.6" y1="-148.7" x2="-33.3" y2="-156.5" stroke="#1a1a1a" stroke-opacity="0.25" stroke-width="1.4"/><line x1="-15.9" y1="-151.2" x2="-16.7" y2="-159.1" stroke="#1a1a1a" stroke-opacity="0.25" stroke-width="1.4"/><rect x="-4.5" y="0" width="9" height="30" rx="2" fill="#1b2028" transform="translate(0.0 -142.0) rotate(0)"/><rect x="-3.0" y="0" width="6" height="20" rx="2" fill="#1b2028" transform="translate(71.0 -123.0) rotate(30)"/><rect x="-3.0" y="0" width="6" height="20" rx="2" fill="#1b2028" transform="translate(123.0 -71.0) rotate(60)"/><rect x="-4.5" y="0" width="9" height="30" rx="2" fill="#1b2028" transform="translate(142.0 -0.0) rotate(90)"/><rect x="-3.0" y="0" width="6" height="20" rx="2" fill="#1b2028" transform="translate(123.0 71.0) rotate(120)"/><rect x="-3.0" y="0" width="6" height="20" rx="2" fill="#1b2028" transform="translate(71.0 123.0) rotate(150)"/><rect x="-4.5" y="0" width="9" height="30" rx="2" fill="#1b2028" transform="translate(0.0 142.0) rotate(180)"/><rect x="-3.0" y="0" width="6" height="20" rx="2" fill="#1b2028" transform="translate(-71.0 123.0) rotate(210)"/><rect x="-3.0" y="0" width="6" height="20" rx="2" fill="#1b2028" transform="translate(-123.0 71.0) rotate(240)"/><rect x="-4.5" y="0" width="9" height="30" rx="2" fill="#1b2028" transform="translate(-142.0 0.0) rotate(270)"/><rect x="-3.0" y="0" width="6" height="20" rx="2" fill="#1b2028" transform="translate(-123.0 -71.0) rotate(300)"/><rect x="-3.0" y="0" width="6" height="20" rx="2" fill="#1b2028" transform="translate(-71.0 -123.0) rotate(330)"/>
<circle cx="-72" cy="0" r="44" fill="#000" fill-opacity=".07"/><circle cx="-72" cy="0" r="44" fill="none" stroke="#1a1a1a" stroke-opacity=".28" stroke-width="1.6"/><line x1="-72.0" y1="-36.0" x2="-72.0" y2="-42.0" stroke="#1a1a1a" stroke-opacity=".35" stroke-width="1.5"/><line x1="-54.0" y1="-31.2" x2="-51.0" y2="-36.4" stroke="#1a1a1a" stroke-opacity=".35" stroke-width="1.5"/><line x1="-40.8" y1="-18.0" x2="-35.6" y2="-21.0" stroke="#1a1a1a" stroke-opacity=".35" stroke-width="1.5"/><line x1="-36.0" y1="-0.0" x2="-30.0" y2="-0.0" stroke="#1a1a1a" stroke-opacity=".35" stroke-width="1.5"/><line x1="-40.8" y1="18.0" x2="-35.6" y2="21.0" stroke="#1a1a1a" stroke-opacity=".35" stroke-width="1.5"/><line x1="-54.0" y1="31.2" x2="-51.0" y2="36.4" stroke="#1a1a1a" stroke-opacity=".35" stroke-width="1.5"/><line x1="-72.0" y1="36.0" x2="-72.0" y2="42.0" stroke="#1a1a1a" stroke-opacity=".35" stroke-width="1.5"/><line x1="-90.0" y1="31.2" x2="-93.0" y2="36.4" stroke="#1a1a1a" stroke-opacity=".35" stroke-width="1.5"/><line x1="-103.2" y1="18.0" x2="-108.4" y2="21.0" stroke="#1a1a1a" stroke-opacity=".35" stroke-width="1.5"/><line x1="-108.0" y1="0.0" x2="-114.0" y2="0.0" stroke="#1a1a1a" stroke-opacity=".35" stroke-width="1.5"/><line x1="-103.2" y1="-18.0" x2="-108.4" y2="-21.0" stroke="#1a1a1a" stroke-opacity=".35" stroke-width="1.5"/><line x1="-90.0" y1="-31.2" x2="-93.0" y2="-36.4" stroke="#1a1a1a" stroke-opacity=".35" stroke-width="1.5"/><line x1="-72" y1="0" x2="-88.0" y2="27.7" stroke="#1b2028" stroke-width="3" stroke-linecap="round"/><circle cx="-72" cy="0" r="3.5" fill="#1a1a1a" fill-opacity=".6"/><circle cx="72" cy="0" r="44" fill="#000" fill-opacity=".07"/><circle cx="72" cy="0" r="44" fill="none" stroke="#1a1a1a" stroke-opacity=".28" stroke-width="1.6"/><line x1="72.0" y1="-36.0" x2="72.0" y2="-42.0" stroke="#1a1a1a" stroke-opacity=".35" stroke-width="1.5"/><line x1="90.0" y1="-31.2" x2="93.0" y2="-36.4" stroke="#1a1a1a" stroke-opacity=".35" stroke-width="1.5"/><line x1="103.2" y1="-18.0" x2="108.4" y2="-21.0" stroke="#1a1a1a" stroke-opacity=".35" stroke-width="1.5"/><line x1="108.0" y1="-0.0" x2="114.0" y2="-0.0" stroke="#1a1a1a" stroke-opacity=".35" stroke-width="1.5"/><line x1="103.2" y1="18.0" x2="108.4" y2="21.0" stroke="#1a1a1a" stroke-opacity=".35" stroke-width="1.5"/><line x1="90.0" y1="31.2" x2="93.0" y2="36.4" stroke="#1a1a1a" stroke-opacity=".35" stroke-width="1.5"/><line x1="72.0" y1="36.0" x2="72.0" y2="42.0" stroke="#1a1a1a" stroke-opacity=".35" stroke-width="1.5"/><line x1="54.0" y1="31.2" x2="51.0" y2="36.4" stroke="#1a1a1a" stroke-opacity=".35" stroke-width="1.5"/><line x1="40.8" y1="18.0" x2="35.6" y2="21.0" stroke="#1a1a1a" stroke-opacity=".35" stroke-width="1.5"/><line x1="36.0" y1="0.0" x2="30.0" y2="0.0" stroke="#1a1a1a" stroke-opacity=".35" stroke-width="1.5"/><line x1="40.8" y1="-18.0" x2="35.6" y2="-21.0" stroke="#1a1a1a" stroke-opacity=".35" stroke-width="1.5"/><line x1="54.0" y1="-31.2" x2="51.0" y2="-36.4" stroke="#1a1a1a" stroke-opacity=".35" stroke-width="1.5"/><line x1="72" y1="0" x2="92.6" y2="24.5" stroke="#1b2028" stroke-width="3" stroke-linecap="round"/><circle cx="72" cy="0" r="3.5" fill="#1a1a1a" fill-opacity=".6"/><circle cx="0" cy="72" r="44" fill="#000" fill-opacity=".07"/><circle cx="0" cy="72" r="44" fill="none" stroke="#1a1a1a" stroke-opacity=".28" stroke-width="1.6"/><line x1="0.0" y1="36.0" x2="0.0" y2="30.0" stroke="#1a1a1a" stroke-opacity=".35" stroke-width="1.5"/><line x1="18.0" y1="40.8" x2="21.0" y2="35.6" stroke="#1a1a1a" stroke-opacity=".35" stroke-width="1.5"/><line x1="31.2" y1="54.0" x2="36.4" y2="51.0" stroke="#1a1a1a" stroke-opacity=".35" stroke-width="1.5"/><line x1="36.0" y1="72.0" x2="42.0" y2="72.0" stroke="#1a1a1a" stroke-opacity=".35" stroke-width="1.5"/><line x1="31.2" y1="90.0" x2="36.4" y2="93.0" stroke="#1a1a1a" stroke-opacity=".35" stroke-width="1.5"/><line x1="18.0" y1="103.2" x2="21.0" y2="108.4" stroke="#1a1a1a" stroke-opacity=".35" stroke-width="1.5"/><line x1="0.0" y1="108.0" x2="0.0" y2="114.0" stroke="#1a1a1a" stroke-opacity=".35" stroke-width="1.5"/><line x1="-18.0" y1="103.2" x2="-21.0" y2="108.4" stroke="#1a1a1a" stroke-opacity=".35" stroke-width="1.5"/><line x1="-31.2" y1="90.0" x2="-36.4" y2="93.0" stroke="#1a1a1a" stroke-opacity=".35" stroke-width="1.5"/><line x1="-36.0" y1="72.0" x2="-42.0" y2="72.0" stroke="#1a1a1a" stroke-opacity=".35" stroke-width="1.5"/><line x1="-31.2" y1="54.0" x2="-36.4" y2="51.0" stroke="#1a1a1a" stroke-opacity=".35" stroke-width="1.5"/><line x1="-18.0" y1="40.8" x2="-21.0" y2="35.6" stroke="#1a1a1a" stroke-opacity=".35" stroke-width="1.5"/><line x1="0" y1="72" x2="-27.7" y2="56.0" stroke="#1b2028" stroke-width="3" stroke-linecap="round"/><circle cx="0" cy="72" r="3.5" fill="#1a1a1a" fill-opacity=".6"/>

<text x="0" y="-62" text-anchor="middle" font-family="Georgia,serif" font-size="26"
 letter-spacing="7" fill="#1b2028" fill-opacity=".9">KRONOS</text>
<text x="0" y="-38" text-anchor="middle" font-family="Helvetica,Arial,sans-serif"
 font-size="13" letter-spacing="3" fill="#1a1a1a" fill-opacity=".55">VELOCITY CHRONOGRAPH</text>
<line x1="19.1" y1="11.0" x2="-74.5" y2="-43.0" stroke="#1b2028" stroke-width="13" stroke-linecap="round"/><line x1="-22.5" y1="13.0" x2="110.9" y2="-64.0" stroke="#1b2028" stroke-width="9" stroke-linecap="round"/><line x1="4.2" y1="-39.8" x2="-14.8" y2="141.2" stroke="#C0392B" stroke-width="3.2" stroke-linecap="round"/><circle r="8" fill="#1b2028"/><circle r="3" fill="#e6e2da"/>
<circle r="164" fill="url(#glass)"/>
</g></g></g></svg>