<svg xmlns="http://www.w3.org/2000/svg" viewBox="0 0 800 800" width="800" height="800" role="img"><defs>
<linearGradient id="bg" x1="0" y1="0" x2="1" y2="1"><stop offset="0" stop-color="#eef1f5"/><stop offset="1" stop-color="#d7dce4"/></linearGradient>
<linearGradient id="mtl" x1="0" y1="0" x2="1" y2="1"><stop offset="0" stop-color="#e7e6e2"/><stop offset=".42" stop-color="#b7b5ae"/><stop offset=".62" stop-color="#e7e6e2"/><stop offset="1" stop-color="#797870"/></linearGradient>
<linearGradient id="mtl2" x1="1" y1="0" x2="0" y2="1"><stop offset="0" stop-color="#b7b5ae"/><stop offset=".5" stop-color="#e7e6e2"/><stop offset="1" stop-color="#797870"/></linearGradient>
<linearGradient id="strap" x1="0" y1="0" x2="1" y2="0"><stop offset="0" stop-color="#1a2b4a"/><stop offset=".35" stop-color="#26375c"/><stop offset="1" stop-color="#1a2b4a"/></linearGradient>
<radialGradient id="dial" cx=".38" cy=".3" r=".85"><stop offset="0" stop-color="#eef1f5"/><stop offset="1" stop-color="#c9d1de"/></radialGradient>
<radialGradient id="glass" cx=".3" cy=".22" r=".6"><stop offset="0" stop-color="#ffffff" stop-opacity=".30"/><stop offset=".55" stop-color="#ffffff" stop-opacity=".05"/><stop offset="1" stop-color="#ffffff" stop-opacity="0"/></radialGradient>
<radialGradient id="shadow" cx=".5" cy=".5" r=".5"><stop offset="0" stop-color="#000" stop-opacity=".22"/><stop offset="1" stop-color="#000" stop-opacity="0"/></radialGradient>
</defs><rect x="-2000" y="-2000" width="6000" height="6000" fill="url(#bg)"/><g transform="translate(400 400)"><g transform="rotate(0) scale(0.98)"><ellipse cx="0" cy="18" rx="250" ry="250" fill="url(#shadow)"/><path d="M-112 -150 L112 -150 L94 -360 L-94 -360 Z" fill="url(#strap)"/><line x1="-96" y1="-175" x2="96" y2="-175" stroke="#000" stroke-opacity=".22" stroke-width="3"/><line x1="-96" y1="-207" x2="96" y2="-207" stroke="#000" stroke-opacity=".22" stroke-width="3"/><line x1="-96" y1="-239" x2="96" y2="-239" stroke="#000" stroke-opacity=".22" stroke-width="3"/><line x1="-96" y1="-271" x2="96" y2="-271" stroke="#000" stroke-opacity=".22" stroke-width="3"/><line x1="-96" y1="-303" x2="96" y2="-303" stroke="#000" stroke-opacity=".22" stroke-width="3"/><line x1="-96" y1="-335" x2="96" y2="-335" stroke="#000" stroke-opacity=".22" stroke-width="3"/><line x1="-84" y1="-150" x2="-69" y2="-360" stroke="#fff" stroke-opacity=".10" stroke-width="2"/><line x1="-56" y1="-150" x2="-46" y2="-360" stroke="#fff" stroke-opacity=".10" stroke-width="2"/><line x1="-28" y1="-150" x2="-23" y2="-360" stroke="#fff" stroke-opacity=".10" stroke-width="2"/><line x1="0" y1="-150" x2="0" y2="-360" stroke="#fff" stroke-opacity=".10" stroke-width="2"/><line x1="28" y1="-150" x2="23" y2="-360" stroke="#fff" stroke-opacity=".10" stroke-width="2"/><line x1="56" y1="-150" x2="46" y2="-360" stroke="#fff" stroke-opacity=".10" stroke-width="2"/><line x1="84" y1="-150" x2="69" y2="-360" stroke="#fff" stroke-opacity=".10" stroke-width="2"/><path d="M-112 150 L112 150 L94 360 L-94 360 Z" fill="url(#strap)"/><line x1="-96" y1="175" x2="96" y2="175" stroke="#000" stroke-opacity=".22" stroke-width="3"/><line x1="-96" y1="207" x2="96" y2="207" stroke="#000" stroke-opacity=".22" stroke-width="3"/><line x1="-96" y1="239" x2="96" y2="239" stroke="#000" stroke-opacity=".22" stroke-width="3"/><line x1="-96" y1="271" x2="96" y2="271" stroke="#000" stroke-opacity=".22" stroke-width="3"/><line x1="-96" y1="303" x2="96" y2="303" stroke="#000" stroke-opacity=".22" stroke-width="3"/><line x1="-96" y1="335" x2="96" y2="335" stroke="#000" stroke-opacity=".22" stroke-width="3"/><line x1="-84" y1="150" x2="-69" y2="360" stroke="#fff" stroke-opacity=".10" stroke-width="2"/><line x1="-56" y1="150" x2="-46" y2="360" stroke="#fff" stroke-opacity=".10" stroke-width="2"/><line x1="-28" y1="150" x2="-23" y2="360" stroke="#fff" stroke-opacity=".10" stroke-width="2"/><line x1="0" y1="150" x2="0" y2="360" stroke="#fff" stroke-opacity=".10" stroke-width="2"/><line x1="28" y1="150" x2="23" y2="360" stroke="#fff" stroke-opacity=".10" stroke-width="2"/><line x1="56" y1="150" x2="46" y2="360" stroke="#fff" stroke-opacity=".10" stroke-width="2"/><line x1="84" y1="150" x2="69" y2="360" stroke="#fff" stroke-opacity=".10" stroke-width="2"/><circle r="200" fill="none" stroke="#1a2b4a" stroke-opacity=".9" stroke-width="14"/><path d="M-200 0 A200 200 0 0 1 200 0 L188 0 A188 188 0 0 0 -188 0 Z" fill="#1a2b4a"/><path d="M200 0 A200 200 0 0 1 -200 0 L-188 0 A188 188 0 0 0 188 0 Z" fill="#7a1f1f"/><circle r="188" fill="url(#mtl2)"/><circle r="172" fill="none" stroke="#000" stroke-opacity=".18" stroke-width="3"/><rect x="186" y="-22" width="36" height="44" rx="7" fill="url(#mtl)" stroke="#000" stroke-opacity=".2"/><circle r="172" fill="url(#dial)"/><line x1="0.0" y1="-152.0" x2="0.0" y2="-160.0" stroke="#1a1a1a" stroke-opacity="0.55" stroke-width="2.6"/><line x1="15.9" y1="-151.2" x2="16.6" y2="-158.2" stroke="#1a1a1a" stroke-opacity="0.25" stroke-width="1.4"/><line x1="31.6" y1="-148.7" x2="33.1" y2="-155.6" stroke="#1a1a1a" stroke-opacity="0.25" stroke-width="1.4"/><line x1="47.0" y1="-144.6" x2="49.2" y2="-151.3" stroke="#1a1a1a" stroke-opacity="0.25" stroke-width="1.4"/><line x1="61.8" y1="-138.9" x2="64.7" y2="-145.3" stroke="#1a1a1a" stroke-opacity="0.25" stroke-width="1.4"/><line x1="76.0" y1="-131.6" x2="80.0" y2="-138.6" stroke="#1a1a1a" stroke-opacity="0.55" stroke-width="2.6"/><line x1="89.3" y1="-123.0" x2="93.5" y2="-128.7" stroke="#1a1a1a" stroke-opacity="0.25" stroke-width="1.4"/><line x1="101.7" y1="-113.0" x2="106.5" y2="-118.2" stroke="#1a1a1a" stroke-opacity="0.25" stroke-width="1.4"/><line x1="113.0" y1="-101.7" x2="118.2" y2="-106.5" stroke="#1a1a1a" stroke-opacity="0.25" stroke-width="1.4"/><line x1="123.0" y1="-89.3" x2="128.7" y2="-93.5" stroke="#1a1a1a" stroke-opacity="0.25" stroke-width="1.4"/><line x1="131.6" y1="-76.0" x2="138.6" y2="-80.0" stroke="#1a1a1a" stroke-opacity="0.55" stroke-width="2.6"/><line x1="138.9" y1="-61.8" x2="145.3" y2="-64.7" stroke="#1a1a1a" stroke-opacity="0.25" stroke-width="1.4"/><line x1="144.6" y1="-47.0" x2="151.3" y2="-49.2" stroke="#1a1a1a" stroke-opacity="0.25" stroke-width="1.4"/><line x1="148.7" y1="-31.6" x2="155.6" y2="-33.1" stroke="#1a1a1a" stroke-opacity="0.25" stroke-width="1.4"/><line x1="151.2" y1="-15.9" x2="158.2" y2="-16.6" stroke="#1a1a1a" stroke-opacity="0.25" stroke-width="1.4"/><line x1="152.0" y1="0.0" x2="160.0" y2="0.0" stroke="#1a1a1a" stroke-opacity="0.55" stroke-width="2.6"/><line x1="151.2" y1="15.9" x2="158.2" y2="16.6" stroke="#1a1a1a" stroke-opacity="0.25" stroke-width="1.4"/><line x1="148.7" y1="31.6" x2="155.6" y2="33.1" stroke="#1a1a1a" stroke-opacity="0.25" stroke-width="1.4"/><line x1="144.6" y1="47.0" x2="151.3" y2="49.2" stroke="#1a1a1a" stroke-opacity="0.25" stroke-width="1.4"/><line x1="138.9" y1="61.8" x2="145.3" y2="64.7" stroke="#1a1a1a" stroke-opacity="0.25" stroke-width="1.4"/><line x1="131.6" y1="76.0" x2="138.6" y2="80.0" stroke="#1a1a1a" stroke-opacity="0.55" stroke-width="2.6"/><line x1="123.0" y1="89.3" x2="128.7" y2="93.5" stroke="#1a1a1a" stroke-opacity="0.25" stroke-width="1.4"/><line x1="113.0" y1="101.7" x2="118.2" y2="106.5" stroke="#1a1a1a" stroke-opacity="0.25" stroke-width="1.4"/><line x1="101.7" y1="113.0" x2="106.5" y2="118.2" stroke="#1a1a1a" stroke-opacity="0.25" stroke-width="1.4"/><line x1="89.3" y1="123.0" x2="93.5" y2="128.7" stroke="#1a1a1a" stroke-opacity="0.25" stroke-width="1.4"/><line x1="76.0" y1="131.6" x2="80.0" y2="138.6" stroke="#1a1a1a" stroke-opacity="0.55" stroke-width="2.6"/><line x1="61.8" y1="138.9" x2="64.7" y2="145.3" stroke="#1a1a1a" stroke-opacity="0.25" stroke-width="1.4"/><line x1="47.0" y1="144.6" x2="49.2" y2="151.3" stroke="#1a1a1a" stroke-opacity="0.25" stroke-width="1.4"/><line x1="31.6" y1="148.7" x2="33.1" y2="155.6" stroke="#1a1a1a" stroke-opacity="0.25" stroke-width="1.4"/><line x1="15.9" y1="151.2" x2="16.6" y2="158.2" stroke="#1a1a1a" stroke-opacity="0.25" stroke-width="1.4"/><line x1="0.0" y1="152.0" x2="0.0" y2="160.0" stroke="#1a1a1a" stroke-opacity="0.55" stroke-width="2.6"/><line x1="-15.9" y1="151.2" x2="-16.6" y2="158.2" stroke="#1a1a1a" stroke-opacity="0.25" stroke-width="1.4"/><line x1="-31.6" y1="148.7" x2="-33.1" y2="155.6" stroke="#1a1a1a" stroke-opacity="0.25" stroke-width="1.4"/><line x1="-47.0" y1="144.6" x2="-49.2" y2="151.3" stroke="#1a1a1a" stroke-opacity="0.25" stroke-width="1.4"/><line x1="-61.8" y1="138.9" x2="-64.7" y2="145.3" stroke="#1a1a1a" stroke-opacity="0.25" stroke-width="1.4"/><line x1="-76.0" y1="131.6" x2="-80.0" y2="138.6" stroke="#1a1a1a" stroke-opacity="0.55" stroke-width="2.6"/><line x1="-89.3" y1="123.0" x2="-93.5" y2="128.7" stroke="#1a1a1a" stroke-opacity="0.25" stroke-width="1.4"/><line x1="-101.7" y1="113.0" x2="-106.5" y2="118.2" stroke="#1a1a1a" stroke-opacity="0.25" stroke-width="1.4"/><line x1="-113.0" y1="101.7" x2="-118.2" y2="106.5" stroke="#1a1a1a" stroke-opacity="0.25" stroke-width="1.4"/><line x1="-123.0" y1="89.3" x2="-128.7" y2="93.5" stroke="#1a1a1a" stroke-opacity="0.25" stroke-width="1.4"/><line x1="-131.6" y1="76.0" x2="-138.6" y2="80.0" stroke="#1a1a1a" stroke-opacity="0.55" stroke-width="2.6"/><line x1="-138.9" y1="61.8" x2="-145.3" y2="64.7" stroke="#1a1a1a" stroke-opacity="0.25" stroke-width="1.4"/><line x1="-144.6" y1="47.0" x2="-151.3" y2="49.2" stroke="#1a1a1a" stroke-opacity="0.25" stroke-width="1.4"/><line x1="-148.7" y1="31.6" x2="-155.6" y2="33.1" stroke="#1a1a1a" stroke-opacity="0.25" stroke-width="1.4"/><line x1="-151.2" y1="15.9" x2="-158.2" y2="16.6" stroke="#1a1a1a" stroke-opacity="0.25" stroke-width="1.4"/><line x1="-152.0" y1="0.0" x2="-160.0" y2="0.0" stroke="#1a1a1a" stroke-opacity="0.55" stroke-width="2.6"/><line x1="-151.2" y1="-15.9" x2="-158.2" y2="-16.6" stroke="#1a1a1a" stroke-opacity="0.25" stroke-width="1.4"/><line x1="-148.7" y1="-31.6" x2="-155.6" y2="-33.1" stroke="#1a1a1a" stroke-opacity="0.25" stroke-width="1.4"/><line x1="-144.6" y1="-47.0" x2="-151.3" y2="-49.2" stroke="#1a1a1a" stroke-opacity="0.25" stroke-width="1.4"/><line x1="-138.9" y1="-61.8" x2="-145.3" y2="-64.7" stroke="#1a1a1a" stroke-opacity="0.25" stroke-width="1.4"/><line x1="-131.6" y1="-76.0" x2="-138.6" y2="-80.0" stroke="#1a1a1a" stroke-opacity="0.55" stroke-width="2.6"/><line x1="-123.0" y1="-89.3" x2="-128.7" y2="-93.5" stroke="#1a1a1a" stroke-opacity="0.25" stroke-width="1.4"/><line x1="-113.0" y1="-101.7" x2="-118.2" y2="-106.5" stroke="#1a1a1a" stroke-opacity="0.25" stroke-width="1.4"/><line x1="-101.7" y1="-113.0" x2="-106.5" y2="-118.2" stroke="#1a1a1a" stroke-opacity="0.25" stroke-width="1.4"/><line x1="-89.3" y1="-123.0" x2="-93.5" y2="-128.7" stroke="#1a1a1a" stroke-opacity="0.25" stroke-width="1.4"/><line x1="-76.0" y1="-131.6" x2="-80.0" y2="-138.6" stroke="#1a1a1a" stroke-opacity="0.55" stroke-width="2.6"/><line x1="-61.8" y1="-138.9" x2="-64.7" y2="-145.3" stroke="#1a1a1a" stroke-opacity="0.25" stroke-width="1.4"/><line x1="-47.0" y1="-144.6" x2="-49.2" y2="-151.3" stroke="#1a1a1a" stroke-opacity="0.25" stroke-width="1.4"/><line x1="-31.6" y1="-148.7" x2="-33.1" y2="-155.6" stroke="#1a1a1a" stroke-opacity="0.25" stroke-width="1.4"/><line x1="-15.9" y1="-151.2" x2="-16.6" y2="-158.2" stroke="#1a1a1a" stroke-opacity="0.25" stroke-width="1.4"/><rect x="-4.5" y="0" width="9" height="30" rx="2" fill="#1f2937" transform="translate(0.0 -142.0) rotate(0)"/><rect x="-3.0" y="0" width="6" height="20" rx="2" fill="#1f2937" transform="translate(71.0 -123.0) rotate(30)"/><rect x="-3.0" y="0" width="6" height="20" rx="2" fill="#1f2937" transform="translate(123.0 -71.0) rotate(60)"/><rect x="-4.5" y="0" width="9" height="30" rx="2" fill="#1f2937" transform="translate(142.0 -0.0) rotate(90)"/><rect x="-3.0" y="0" width="6" height="20" rx="2" fill="#1f2937" transform="translate(123.0 71.0) rotate(120)"/><rect x="-3.0" y="0" width="6" height="20" rx="2" fill="#1f2937" transform="translate(71.0 123.0) rotate(150)"/><rect x="-4.5" y="0" width="9" height="30" rx="2" fill="#1f2937" transform="translate(0.0 142.0) rotate(180)"/><rect x="-3.0" y="0" width="6" height="20" rx="2" fill="#1f2937" transform="translate(-71.0 123.0) rotate(210)"/><rect x="-3.0" y="0" width="6" height="20" rx="2" fill="#1f2937" transform="translate(-123.0 71.0) rotate(240)"/><rect x="-4.5" y="0" width="9" height="30" rx="2" fill="#1f2937" transform="translate(-142.0 0.0) rotate(270)"/><rect x="-3.0" y="0" width="6" height="20" rx="2" fill="#1f2937" transform="translate(-123.0 -71.0) rotate(300)"/><rect x="-3.0" y="0" width="6" height="20" rx="2" fill="#1f2937" transform="translate(-71.0 -123.0) rotate(330)"/><circle cx="-58" cy="0" r="30" fill="#00000012" stroke="#1a1a1a" stroke-opacity=".35" stroke-width="1.5"/><line x1="-58.0" y1="-27.0" x2="-58.0" y2="-30.0" stroke="#1a1a1a" stroke-opacity=".4" stroke-width="1"/><line x1="-44.5" y1="-23.4" x2="-43.0" y2="-26.0" stroke="#1a1a1a" stroke-opacity=".4" stroke-width="1"/><line x1="-34.6" y1="-13.5" x2="-32.0" y2="-15.0" stroke="#1a1a1a" stroke-opacity=".4" stroke-width="1"/><line x1="-31.0" y1="-0.0" x2="-28.0" y2="-0.0" stroke="#1a1a1a" stroke-opacity=".4" stroke-width="1"/><line x1="-34.6" y1="13.5" x2="-32.0" y2="15.0" stroke="#1a1a1a" stroke-opacity=".4" stroke-width="1"/><line x1="-44.5" y1="23.4" x2="-43.0" y2="26.0" stroke="#1a1a1a" stroke-opacity=".4" stroke-width="1"/><line x1="-58.0" y1="27.0" x2="-58.0" y2="30.0" stroke="#1a1a1a" stroke-opacity=".4" stroke-width="1"/><line x1="-71.5" y1="23.4" x2="-73.0" y2="26.0" stroke="#1a1a1a" stroke-opacity=".4" stroke-width="1"/><line x1="-81.4" y1="13.5" x2="-84.0" y2="15.0" stroke="#1a1a1a" stroke-opacity=".4" stroke-width="1"/><line x1="-85.0" y1="0.0" x2="-88.0" y2="0.0" stroke="#1a1a1a" stroke-opacity=".4" stroke-width="1"/><line x1="-81.4" y1="-13.5" x2="-84.0" y2="-15.0" stroke="#1a1a1a" stroke-opacity=".4" stroke-width="1"/><line x1="-71.5" y1="-23.4" x2="-73.0" y2="-26.0" stroke="#1a1a1a" stroke-opacity=".4" stroke-width="1"/><line x1="-58" y1="0" x2="-58" y2="-18" stroke="#1f2937" stroke-width="2" stroke-linecap="round"/><circle cx="0" cy="58" r="30" fill="#00000012" stroke="#1a1a1a" stroke-opacity=".35" stroke-width="1.5"/><line x1="0.0" y1="31.0" x2="0.0" y2="28.0" stroke="#1a1a1a" stroke-opacity=".4" stroke-width="1"/><line x1="13.5" y1="34.6" x2="15.0" y2="32.0" stroke="#1a1a1a" stroke-opacity=".4" stroke-width="1"/><line x1="23.4" y1="44.5" x2="26.0" y2="43.0" stroke="#1a1a1a" stroke-opacity=".4" stroke-width="1"/><line x1="27.0" y1="58.0" x2="30.0" y2="58.0" stroke="#1a1a1a" stroke-opacity=".4" stroke-width="1"/><line x1="23.4" y1="71.5" x2="26.0" y2="73.0" stroke="#1a1a1a" stroke-opacity=".4" stroke-width="1"/><line x1="13.5" y1="81.4" x2="15.0" y2="84.0" stroke="#1a1a1a" stroke-opacity=".4" stroke-width="1"/><line x1="0.0" y1="85.0" x2="0.0" y2="88.0" stroke="#1a1a1a" stroke-opacity=".4" stroke-width="1"/><line x1="-13.5" y1="81.4" x2="-15.0" y2="84.0" stroke="#1a1a1a" stroke-opacity=".4" stroke-width="1"/><line x1="-23.4" y1="71.5" x2="-26.0" y2="73.0" stroke="#1a1a1a" stroke-opacity=".4" stroke-width="1"/><line x1="-27.0" y1="58.0" x2="-30.0" y2="58.0" stroke="#1a1a1a" stroke-opacity=".4" stroke-width="1"/><line x1="-23.4" y1="44.5" x2="-26.0" y2="43.0" stroke="#1a1a1a" stroke-opacity=".4" stroke-width="1"/><line x1="-13.5" y1="34.6" x2="-15.0" y2="32.0" stroke="#1a1a1a" stroke-opacity=".4" stroke-width="1"/><line x1="0" y1="58" x2="0" y2="40" stroke="#1f2937" stroke-width="2" stroke-linecap="round"/><circle cx="58" cy="0" r="30" fill="#00000012" stroke="#1a1a1a" stroke-opacity=".35" stroke-width="1.5"/><line x1="58.0" y1="-27.0" x2="58.0" y2="-30.0" stroke="#1a1a1a" stroke-opacity=".4" stroke-width="1"/><line x1="71.5" y1="-23.4" x2="73.0" y2="-26.0" stroke="#1a1a1a" stroke-opacity=".4" stroke-width="1"/><line x1="81.4" y1="-13.5" x2="84.0" y2="-15.0" stroke="#1a1a1a" stroke-opacity=".4" stroke-width="1"/><line x1="85.0" y1="-0.0" x2="88.0" y2="-0.0" stroke="#1a1a1a" stroke-opacity=".4" stroke-width="1"/><line x1="81.4" y1="13.5" x2="84.0" y2="15.0" stroke="#1a1a1a" stroke-opacity=".4" stroke-width="1"/><line x1="71.5" y1="23.4" x2="73.0" y2="26.0" stroke="#1a1a1a" stroke-opacity=".4" stroke-width="1"/><line x1="58.0" y1="27.0" x2="58.0" y2="30.0" stroke="#1a1a1a" stroke-opacity=".4" stroke-width="1"/><line x1="44.5" y1="23.4" x2="43.0" y2="26.0" stroke="#1a1a1a" stroke-opacity=".4" stroke-width="1"/><line x1="34.6" y1="13.5" x2="32.0" y2="15.0" stroke="#1a1a1a" stroke-opacity=".4" stroke-width="1"/><line x1="31.0" y1="0.0" x2="28.0" y2="0.0" stroke="#1a1a1a" stroke-opacity=".4" stroke-width="1"/><line x1="34.6" y1="-13.5" x2="32.0" y2="-15.0" stroke="#1a1a1a" stroke-opacity=".4" stroke-width="1"/><line x1="44.5" y1="-23.4" x2="43.0" y2="-26.0" stroke="#1a1a1a" stroke-opacity=".4" stroke-width="1"/><line x1="58" y1="0" x2="58" y2="-18" stroke="#1f2937" stroke-width="2" stroke-linecap="round"/><text x="0" y="-62" text-anchor="middle" font-family="Georgia,serif" font-size="26" letter-spacing="7" fill="#1f2937" fill-opacity=".9">KRONOS</text><text x="0" y="-38" text-anchor="middle" font-family="Helvetica,Arial,sans-serif" font-size="13" letter-spacing="3" fill="#1a1a1a" fill-opacity=".55">CHRONOGRAPH GMT</text><line x1="19.1" y1="11.0" x2="-74.5" y2="-43.0" stroke="#1f2937" stroke-width="13" stroke-linecap="round"/><line x1="-22.5" y1="13.0" x2="110.9" y2="-64.0" stroke="#1f2937" stroke-width="9" stroke-linecap="round"/><line x1="4.2" y1="-39.8" x2="-14.8" y2="141.2" stroke="#c9a227" stroke-width="3.2" stroke-linecap="round"/><line x1="0" y1="0" x2="95" y2="55" stroke="#c94a2c" stroke-width="4" stroke-linecap="round"/><path d="M95 55 L108 62 L92 68 Z" fill="#c94a2c"/><circle r="8" fill="#1f2937"/><circle r="3" fill="#e6e2da"/><circle r="172" fill="url(#glass)"/></g></g></svg>